<svg width="194" height="77" viewBox="0 0 194 77" fill="none" xmlns="http://www.w3.org/2000/svg">
<path d="M90.3716 33.0209V18.6746H93.7666V32.0726C93.7666 32.3806 93.799 32.6318 93.8636 32.8263C93.9445 33.0047 94.0738 33.1262 94.2516 33.1911C94.4456 33.2559 94.5992 33.2965 94.7124 33.3127C94.8256 33.3289 95.0115 33.337 95.2701 33.337H101.357V36.4737H94.0576C91.6003 36.4737 90.3716 35.3228 90.3716 33.0209Z" fill="white"/>
<path d="M106.912 32.9722V22.3706C106.912 21.7708 106.992 21.2439 107.154 20.79C107.316 20.3361 107.526 19.9795 107.785 19.7201C108.043 19.4608 108.342 19.25 108.682 19.0879C109.038 18.9096 109.377 18.7961 109.7 18.7475C110.04 18.6989 110.396 18.6746 110.767 18.6746C114.938 18.788 117.541 18.9177 118.576 19.0636V21.8842H111.568C111.26 21.8842 111.018 21.9167 110.84 21.9815C110.662 22.0464 110.533 22.1598 110.452 22.3219C110.387 22.484 110.347 22.6218 110.331 22.7353C110.315 22.8488 110.307 23.019 110.307 23.2459V26.0179L117.485 26.2611V29.0817L110.307 29.3006V32.0726C110.307 32.3806 110.347 32.6318 110.428 32.8263C110.509 33.0047 110.638 33.1344 110.816 33.2154C110.994 33.2802 111.139 33.3208 111.252 33.337C111.382 33.337 111.568 33.337 111.81 33.337H118.576V36.1333C118.172 36.1819 117.339 36.2468 116.078 36.3278C114.817 36.3927 113.653 36.4413 112.586 36.4737L111.01 36.5467C110.638 36.5629 110.29 36.5548 109.967 36.5224C109.644 36.4899 109.288 36.4008 108.9 36.2549C108.512 36.109 108.173 35.9145 107.882 35.6713C107.607 35.4281 107.372 35.0796 107.178 34.6257C107.001 34.1556 106.912 33.6045 106.912 32.9722Z" fill="white"/>
<path d="M123.605 36.4737L129.595 18.6746H133.45L139.222 36.4737H135.609L134.348 32.5346H128.528L127.242 36.4737H123.605ZM129.425 29.5194H133.547L131.559 23.1487L129.425 29.5194Z" fill="white"/>
<path d="M144.324 36.4737V18.6746H152.084C152.811 18.6746 153.458 18.7718 154.024 18.9664C154.59 19.1447 155.091 19.4446 155.527 19.866C155.98 20.2713 156.327 20.8468 156.57 21.5925C156.812 22.3219 156.934 23.1973 156.934 24.2186C156.934 25.0615 156.861 25.7991 156.715 26.4313C156.57 27.0635 156.408 27.5498 156.23 27.8902C156.053 28.2145 155.81 28.5062 155.503 28.7656C155.196 29.0088 154.961 29.1628 154.8 29.2276C154.638 29.2925 154.404 29.3735 154.096 29.4708L157.467 36.4737H153.636L150.701 29.7382L147.719 29.3978V36.4737H144.324ZM147.743 26.7231H151.768C152.092 26.7231 152.35 26.6988 152.544 26.6501C152.738 26.5853 152.908 26.4637 153.054 26.2854C153.215 26.1071 153.329 25.8558 153.393 25.5316C153.474 25.1912 153.514 24.7535 153.514 24.2186C153.514 23.2621 153.369 22.6056 153.078 22.249C152.787 21.8761 152.35 21.6897 151.768 21.6897H147.743V26.7231Z" fill="white"/>
<path d="M162.788 36.4737V18.6746H166.232L173.264 30.1759V18.6746H176.659V36.4737H173.264L166.207 25.0939V36.4737H162.788Z" fill="white"/>
<path d="M90.3716 57.5474V39.7483H97.6951C99.4088 39.7483 100.67 40.1941 101.478 41.0857C102.286 41.961 102.691 43.1039 102.691 44.5142C102.691 45.422 102.489 46.2487 102.084 46.9944C101.68 47.7239 101.074 48.1616 100.266 48.3074C101.042 48.4533 101.688 48.891 102.206 49.6205C102.723 50.3338 102.982 51.2334 102.982 52.3196C102.982 53.1625 102.877 53.9001 102.666 54.5323C102.472 55.1645 102.165 55.7076 101.745 56.1614C101.341 56.6153 100.799 56.9639 100.12 57.207C99.4573 57.434 98.6651 57.5474 97.7436 57.5474H90.3716ZM93.7666 54.5323L97.6224 54.5566C98.9319 54.5566 99.5866 53.7623 99.5866 52.1737C99.5866 51.7036 99.522 51.2902 99.3926 50.9336C99.2795 50.5769 99.0693 50.277 98.7621 50.0339C98.455 49.7907 98.0751 49.6691 97.6224 49.6691H93.7666V54.5323ZM93.7666 46.7999H97.4769C98.0912 46.7999 98.552 46.6297 98.8591 46.2892C99.1825 45.9326 99.3441 45.4301 99.3441 44.7817C99.3441 44.5223 99.3199 44.2872 99.2714 44.0765C99.2229 43.8496 99.1501 43.6631 99.0531 43.5172C98.9561 43.3713 98.8511 43.2498 98.7379 43.1525C98.6247 43.039 98.4954 42.958 98.3499 42.9093C98.2044 42.8607 98.0589 42.8283 97.9134 42.8121C97.7841 42.7797 97.6386 42.7634 97.4769 42.7634H93.7666V46.7999Z" fill="#2CB3BC"/>
<path d="M108.475 54.046V43.4443C108.475 42.8445 108.555 42.3177 108.717 41.8638C108.879 41.4099 109.089 41.0532 109.348 40.7939C109.606 40.5345 109.905 40.3238 110.245 40.1617C110.601 39.9833 110.94 39.8699 111.263 39.8212C111.603 39.7726 111.959 39.7483 112.33 39.7483C116.501 39.8618 119.104 39.9914 120.139 40.1373V42.958H113.131C112.823 42.958 112.581 42.9904 112.403 43.0552C112.225 43.1201 112.096 43.2336 112.015 43.3957C111.95 43.5578 111.91 43.6956 111.894 43.809C111.878 43.9225 111.87 44.0927 111.87 44.3197V47.0917L119.048 47.3348V50.1554L111.87 50.3743V53.1463C111.87 53.4543 111.91 53.7056 111.991 53.9001C112.072 54.0784 112.201 54.2081 112.379 54.2891C112.557 54.354 112.702 54.3945 112.815 54.4107C112.945 54.4107 113.131 54.4107 113.373 54.4107H120.139V57.207C119.735 57.2557 118.902 57.3205 117.641 57.4016C116.38 57.4664 115.216 57.515 114.149 57.5474L112.573 57.6204C112.201 57.6366 111.853 57.6285 111.53 57.5961C111.207 57.5637 110.851 57.4745 110.463 57.3286C110.075 57.1827 109.736 56.9882 109.445 56.745C109.17 56.5019 108.935 56.1533 108.741 55.6994C108.564 55.2293 108.475 54.6782 108.475 54.046Z" fill="#2CB3BC"/>
<path d="M125.095 42.885V39.7483H138.214V42.885H133.292V57.5474H129.897V42.885H125.095Z" fill="#2CB3BC"/>
<path d="M142.986 42.885V39.7483H156.105V42.885H151.183V57.5474H147.788V42.885H142.986Z" fill="#2CB3BC"/>
<path d="M161.532 54.046V43.4443C161.532 42.8445 161.613 42.3177 161.774 41.8638C161.936 41.4099 162.146 41.0532 162.405 40.7939C162.664 40.5345 162.963 40.3238 163.302 40.1617C163.658 39.9833 163.997 39.8699 164.321 39.8212C164.66 39.7726 165.016 39.7483 165.388 39.7483C169.559 39.8618 172.162 39.9914 173.196 40.1373V42.958H166.188C165.881 42.958 165.638 42.9904 165.46 43.0552C165.283 43.1201 165.153 43.2336 165.072 43.3957C165.008 43.5578 164.967 43.6956 164.951 43.809C164.935 43.9225 164.927 44.0927 164.927 44.3197V47.0917L172.105 47.3348V50.1554L164.927 50.3743V53.1463C164.927 53.4543 164.967 53.7056 165.048 53.9001C165.129 54.0784 165.258 54.2081 165.436 54.2891C165.614 54.354 165.76 54.3945 165.873 54.4107C166.002 54.4107 166.188 54.4107 166.43 54.4107H173.196V57.207C172.792 57.2557 171.959 57.3205 170.698 57.4016C169.437 57.4664 168.273 57.515 167.206 57.5474L165.63 57.6204C165.258 57.6366 164.911 57.6285 164.587 57.5961C164.264 57.5637 163.908 57.4745 163.52 57.3286C163.132 57.1827 162.793 56.9882 162.502 56.745C162.227 56.5019 161.993 56.1533 161.799 55.6994C161.621 55.2293 161.532 54.6782 161.532 54.046Z" fill="#2CB3BC"/>
<path d="M178.637 57.5474V39.7483H186.397C187.125 39.7483 187.772 39.8456 188.337 40.0401C188.903 40.2184 189.404 40.5183 189.841 40.9398C190.294 41.345 190.641 41.9205 190.884 42.6662C191.126 43.3957 191.247 44.271 191.247 45.2923C191.247 46.1352 191.175 46.8728 191.029 47.505C190.884 48.1372 190.722 48.6236 190.544 48.964C190.366 49.2882 190.124 49.58 189.817 49.8393C189.51 50.0825 189.275 50.2365 189.113 50.3013C188.952 50.3662 188.717 50.4472 188.41 50.5445L191.781 57.5474H187.949L185.015 50.812L182.032 50.4716V57.5474H178.637ZM182.057 47.7968H186.082C186.406 47.7968 186.664 47.7725 186.858 47.7239C187.052 47.659 187.222 47.5374 187.367 47.3591C187.529 47.1808 187.642 46.9296 187.707 46.6053C187.788 46.2649 187.828 45.8272 187.828 45.2923C187.828 44.3359 187.683 43.6793 187.392 43.3227C187.101 42.9499 186.664 42.7634 186.082 42.7634H182.057V47.7968Z" fill="#2CB3BC"/>
<mask id="mask0_713_820" style="mask-type:alpha" maskUnits="userSpaceOnUse" x="0" y="0" width="77" height="77">
<ellipse cx="38.3959" cy="38.5" rx="38.3958" ry="38.5" fill="#2C66BC"/>
</mask>
<g mask="url(#mask0_713_820)">
<ellipse cx="38.3959" cy="38.5" rx="38.3958" ry="38.5" fill="#CDEAFF"/>
<path d="M71.9417 23.1001L91.7458 46.2001L90.5333 58.7632L78.8125 79.0264L51.7333 86.7264L14.55 79.0264L16.975 55.5211L34.7583 42.5527L46.075 23.9106L56.1792 11.7527L71.9417 23.1001Z" fill="#2C66BC"/>
<path d="M64.6667 28.7737L81.6417 49.4422L84.0667 58.7632L72.3458 79.0264L45.2667 86.7264L8.08334 79.0264L10.5083 55.5211L28.2917 42.5527L42.0333 26.3422L56.1792 11.7527L64.6667 28.7737Z" fill="#3EBFC7"/>
<path d="M27.0792 24.3157L18.5917 29.1788L10.9125 34.042L4.04168 41.3367L-6.06249 51.8736L-3.23332 66.0578L10.9125 71.3262L20.2083 82.6736L32.7375 90.3736L35.5667 76.1894L46.075 55.1157L34.7583 36.4736L27.0792 24.3157Z" fill="#2C66BC"/>
<path d="M27.0792 24.3157L18.5917 33.2315L9.29585 45.7946L0.808346 62.0051L-1.61665 71.3262L10.1042 91.5894L31.1208 88.3472L40.4167 93.6157L59.0083 83.4841L55.775 64.0315L35.9708 36.8788L27.0792 24.3157Z" fill="#2CB3BC"/>
</g>
<path d="M49.8903 18.2369L56.1792 11.7527L60.2208 19.8579H52.5417L49.8903 18.2369Z" fill="white"/>
<path d="M60.2208 19.8579L56.1792 11.7527L63.4946 17.0211L60.2208 19.8579Z" fill="#C4C4C4"/>
</svg>
